<svg width="34" height="34" viewBox="0 0 34 34" fill="none" xmlns="http://www.w3.org/2000/svg">
<g clip-path="url(#clip0_23_101)">
<path d="M14.1603 21.2477C14.3415 21.2477 14.5227 21.178 14.6551 21.0386L16.0697 19.6031C16.3484 19.7355 16.662 19.8122 16.9895 19.8122C18.1672 19.8122 19.1289 18.8575 19.1289 17.6798C19.1289 17.3593 19.0522 17.0596 18.9268 16.7948C18.9268 16.7948 18.9338 16.7948 18.9338 16.7879L20.5713 15.1224V15.5545C20.5713 15.9377 20.8849 16.2513 21.2682 16.2513C21.6515 16.2513 21.965 15.9377 21.965 15.5545V13.4291C21.965 13.0458 21.6584 12.7322 21.2682 12.7322H19.1289C18.7456 12.7322 18.432 13.0458 18.432 13.4291C18.432 13.8123 18.7456 14.1259 19.1289 14.1259H19.5958L17.9442 15.8123C17.9442 15.8123 17.9442 15.8123 17.9373 15.8193C17.6516 15.6799 17.331 15.6032 16.9965 15.6032C15.8188 15.6032 14.8572 16.537 14.8572 17.6798C14.8572 18.0213 14.9408 18.3418 15.0802 18.6276L13.6656 20.0631C13.3938 20.3348 13.4008 20.7808 13.6726 21.0456C13.805 21.178 13.9861 21.2477 14.1603 21.2477ZM16.9965 16.997C17.4007 16.997 17.7421 17.3106 17.7421 17.6799C17.7421 18.098 17.4146 18.4186 16.9965 18.4186C16.5784 18.4186 16.2509 18.0911 16.2509 17.6799C16.2509 17.3106 16.5923 16.997 16.9965 16.997Z" fill="black"/>
<path d="M20.3623 4.61403C20.8083 3.26912 20.3971 1.74999 19.2613 0.837119C18 -0.277836 16.0558 -0.277834 14.7387 0.830152C13.6029 1.74302 13.1848 3.26912 13.6307 4.61403C6.99676 6.13316 2.03521 12.0564 2.03521 19.1154C2.03521 27.3243 8.74585 34.0001 16.9965 34.0001C25.2472 34.0001 31.9648 27.3243 31.9648 19.1154C31.9648 12.0563 26.9963 6.13309 20.3623 4.61403ZM15.6168 1.91027C15.6237 1.9033 15.6307 1.9033 15.6307 1.89633C16.4321 1.22039 17.6028 1.21342 18.3484 1.88239C18.3554 1.88936 18.3693 1.89633 18.3763 1.91027C19.108 2.49562 19.3379 3.51301 18.9616 4.3562C18.3205 4.27257 17.6585 4.23076 16.9965 4.23076C16.3345 4.23076 15.6725 4.27257 15.0314 4.3562C14.6481 3.51301 14.8781 2.49555 15.6168 1.91027ZM16.9965 32.6063C11.5402 32.6063 6.82255 29.3869 4.66929 24.7528H8.39046H25.5956H29.3168C27.1705 29.3869 22.4528 32.6063 16.9965 32.6063ZM10.9758 12.0563C14.467 9.17831 19.533 9.17831 23.0242 12.0563C26.3482 14.7949 27.2332 19.4916 25.1914 23.3591H8.8016C6.7668 19.4917 7.64483 14.7949 10.9758 12.0563ZM29.8255 23.3661H26.7384C27.5816 21.4568 27.8673 19.3383 27.5259 17.2826C27.1217 14.8088 25.8325 12.572 23.9092 10.9831C19.9024 7.68706 14.0976 7.68706 10.0908 10.9831C8.16746 12.572 6.8783 14.8088 6.47413 17.2826C6.13267 19.3383 6.41838 21.4568 7.26156 23.3661H4.11182C3.66583 22.0282 3.42194 20.6066 3.42194 19.1223C3.42891 11.68 9.51238 5.62439 16.9965 5.62439C24.4807 5.62439 30.5711 11.673 30.5711 19.1153C30.5711 20.5996 30.3272 22.0282 29.8812 23.3661C29.8603 23.3661 29.8464 23.3661 29.8255 23.3661Z" fill="black"/>
</g>
<defs>
<clipPath id="clip0_23_101">
<rect width="34" height="34" fill="white"/>
</clipPath>
</defs>
</svg>
