<svg width="34" height="34" viewBox="0 0 34 34" fill="none" xmlns="http://www.w3.org/2000/svg">
<g clip-path="url(#clip0_23_40)">
<g clip-path="url(#clip1_23_40)">
<path d="M28.3333 18.2608C28.0547 16.3417 27.3052 14.5214 26.1517 12.9625L25.8117 12.5233L18.6292 3.58417C18.443 3.32389 18.1974 3.11177 17.9129 2.96543C17.6283 2.81909 17.3129 2.74275 16.9929 2.74275C16.6729 2.74275 16.3575 2.81909 16.073 2.96543C15.7884 3.11177 15.5428 3.32389 15.3567 3.58417L8.5 12.1125L7.735 13.0617C6.6302 14.5992 5.91995 16.3846 5.66666 18.2608C5.66666 18.7567 5.58167 19.2808 5.58167 19.805C5.58167 22.8371 6.78616 25.745 8.93017 27.889C11.0742 30.033 13.9821 31.2375 17.0142 31.2375C20.0463 31.2375 22.9542 30.033 25.0982 27.889C27.2422 25.745 28.4467 22.8371 28.4467 19.805C28.4325 19.2808 28.3333 18.7567 28.3333 18.2608ZM15.1017 28.9708C13.3134 28.5021 11.6872 27.5536 10.3988 26.2278C9.11046 24.902 8.20893 23.2493 7.79166 21.4483C7.55534 20.1147 7.61291 18.7456 7.96036 17.4366C8.30781 16.1275 8.93677 14.91 9.80333 13.8692L13.855 8.81167L17 4.90167L20.145 8.81167L24.2108 13.8692C25.6008 15.5442 26.3535 17.6568 26.3358 19.8333C26.3349 21.2186 26.0257 22.5864 25.4306 23.8374C24.8356 25.0884 23.9695 26.1913 22.8954 27.0661C21.8212 27.9409 20.5658 28.5656 19.2202 28.8951C17.8747 29.2245 16.4726 29.2504 15.1158 28.9708H15.1017Z" fill="black"/>
</g>
</g>
<defs>
<clipPath id="clip0_23_40">
<rect width="34" height="34" fill="white"/>
</clipPath>
<clipPath id="clip1_23_40">
<rect width="34" height="34" fill="white"/>
</clipPath>
</defs>
</svg>
