<svg width="34" height="34" viewBox="0 0 34 34" fill="none" xmlns="http://www.w3.org/2000/svg">
<path d="M9.07375 28.2917C4.97516 28.2917 1.64422 23.2262 1.64422 17C1.64422 10.7738 4.97781 5.70828 9.07375 5.70828C13.1697 5.70828 16.5033 10.7738 16.5033 17C16.5033 23.2262 13.1697 28.2917 9.07375 28.2917Z" fill="#FAFAFA"/>
<path d="M9.07375 6.23953C10.8348 6.23953 12.5216 7.30203 13.8205 9.23313C15.207 11.2917 15.972 14.0516 15.972 17C15.972 19.9484 15.207 22.7083 13.8205 24.7669C12.5216 26.698 10.8348 27.7605 9.07375 27.7605C7.31266 27.7605 5.62594 26.698 4.32703 24.7669C2.93781 22.7083 2.17547 19.9484 2.17547 17C2.17547 14.0516 2.94047 11.2917 4.32703 9.23313C5.62594 7.30203 7.31 6.23953 9.07375 6.23953ZM9.07375 5.17703C4.67766 5.17703 1.11297 10.4709 1.11297 17C1.11297 23.5291 4.67766 28.823 9.07375 28.823C13.4698 28.823 17.0345 23.5291 17.0345 17C17.0345 10.4709 13.4698 5.17703 9.07375 5.17703Z" fill="black"/>
<path d="M6.80797 15.895C6.09078 15.2203 6.25016 13.8816 7.16922 12.9041C7.21703 12.8536 7.26484 12.8058 7.31531 12.7606C6.90625 12.5295 6.45734 12.3994 5.98453 12.3994C4.07469 12.3994 2.52609 14.5058 2.52609 17.1009C2.52609 19.6961 4.07469 21.8025 5.98453 21.8025C7.89438 21.8025 9.44297 19.6961 9.44297 17.1009C9.44297 16.6361 9.3925 16.1845 9.29953 15.7595C8.43891 16.3784 7.41094 16.4608 6.80797 15.895Z" fill="url(#paint0_linear_23_110)"/>
<path d="M24.9262 28.823C29.3229 28.823 32.887 23.5296 32.887 17C32.887 10.4704 29.3229 5.17703 24.9262 5.17703C20.5296 5.17703 16.9655 10.4704 16.9655 17C16.9655 23.5296 20.5296 28.823 24.9262 28.823Z" fill="#F4EEEE"/>
<path d="M24.9262 28.2917C20.8303 28.2917 17.4967 23.2262 17.4967 17C17.4967 10.7738 20.8303 5.70828 24.9262 5.70828C29.0222 5.70828 32.3558 10.7738 32.3558 17C32.3558 23.2262 29.0248 28.2917 24.9262 28.2917Z" fill="#FAFAFA"/>
<path d="M24.9262 6.23953C26.6873 6.23953 28.3741 7.30203 29.673 9.23313C31.0595 11.2917 31.8245 14.0516 31.8245 17C31.8245 19.9484 31.0595 22.7083 29.673 24.7669C28.3741 26.698 26.6873 27.7605 24.9262 27.7605C23.1652 27.7605 21.4784 26.698 20.1795 24.7669C18.793 22.7083 18.028 19.9484 18.028 17C18.028 14.0516 18.793 11.2917 20.1795 9.23313C21.4784 7.30203 23.1652 6.23953 24.9262 6.23953ZM24.9262 5.17703C20.5302 5.17703 16.9655 10.4709 16.9655 17C16.9655 23.5291 20.5302 28.823 24.9262 28.823C29.3223 28.823 32.887 23.5291 32.887 17C32.887 10.4709 29.3223 5.17703 24.9262 5.17703Z" fill="black"/>
<path d="M22.6605 15.895C21.9433 15.2203 22.1027 13.8816 23.0217 12.9041C23.0695 12.8536 23.1173 12.8058 23.1678 12.7606C22.7587 12.5295 22.3098 12.3994 21.837 12.3994C19.9272 12.3994 18.3786 14.5058 18.3786 17.1009C18.3786 19.6961 19.9272 21.8025 21.837 21.8025C23.7469 21.8025 25.2955 19.6961 25.2955 17.1009C25.2955 16.6361 25.245 16.1845 25.152 15.7595C24.2941 16.3784 23.2634 16.4608 22.6605 15.895Z" fill="url(#paint1_linear_23_110)"/>
<defs>
<linearGradient id="paint0_linear_23_110" x1="5.98267" y1="12.3983" x2="5.98267" y2="21.8033" gradientUnits="userSpaceOnUse">
<stop/>
<stop offset="1" stop-color="#212121"/>
</linearGradient>
<linearGradient id="paint1_linear_23_110" x1="21.8368" y1="12.3983" x2="21.8368" y2="21.8033" gradientUnits="userSpaceOnUse">
<stop/>
<stop offset="1" stop-color="#212121"/>
</linearGradient>
</defs>
</svg>
