<svg width="46" height="53" viewBox="0 0 46 53" fill="none" xmlns="http://www.w3.org/2000/svg">
<path d="M21.7105 40.7893C21.7105 44.7862 18.4705 48.0262 14.4737 48.0262C10.4768 48.0262 7.23684 44.7862 7.23684 40.7893C7.23684 37.2418 9.78934 34.2905 13.1579 33.6718V17.1051H15.7895V33.6718C19.158 34.2907 21.7105 37.2418 21.7105 40.7893ZM26.3158 40.7893C26.3158 47.3296 21.0138 52.6314 14.4737 52.6314C7.93342 52.6314 2.63158 47.3296 2.63158 40.7893C2.63158 36.1397 5.31118 32.1161 9.21053 30.1783V5.26316C9.21053 2.35632 11.5668 0 14.4737 0C17.3804 0 19.7368 2.35632 19.7368 5.26316V30.1782C23.6361 32.1159 26.3158 36.1397 26.3158 40.7893ZM11.8421 31.9603C8.0375 33.0926 5.26316 36.617 5.26316 40.7893C5.26316 45.8762 9.38684 49.9999 14.4737 49.9999C19.5605 49.9999 23.6841 45.8762 23.6841 40.7893C23.6841 36.617 20.9097 33.0926 17.1053 31.9603V5.26316C17.1053 3.80974 15.927 2.63158 14.4737 2.63158C13.0203 2.63158 11.8421 3.80974 11.8421 5.26316V31.9603ZM7.89474 3.94724V5.26303H0V3.94724H7.89474ZM7.89474 7.89461V9.2104H2.63158V7.89461H7.89474ZM7.89474 11.842V13.1578H0V11.842H7.89474ZM7.89474 15.7893V17.1051H2.63158V15.7893H7.89474ZM7.89474 19.7367V21.0525H0V19.7367H7.89474ZM7.89474 23.6841V24.9999H2.63158V23.6841H7.89474ZM7.89474 27.6314V28.9472H0V27.6314H7.89474ZM36.6141 25.6555C35.3732 26.2593 33.7524 26.5613 31.7516 26.5613C29.1395 26.5613 27.0862 25.7899 25.5921 24.2471C24.0979 22.7043 23.3509 20.6499 23.3509 18.0838C23.3509 15.3487 24.1913 13.1305 25.8722 11.4292C27.5532 9.72776 29.7342 8.87711 32.4155 8.87711C34.076 8.87711 35.4755 9.09198 36.6141 9.52184V13.2982C35.4934 12.6432 34.2167 12.3157 32.7839 12.3157C31.2105 12.3157 29.9409 12.8095 28.975 13.797C28.0092 14.7846 27.5263 16.1226 27.5263 17.8113C27.5263 19.4308 27.9817 20.7209 28.8925 21.6816C29.8033 22.6424 31.0301 23.1226 32.5729 23.1226C34.0441 23.1226 35.391 22.7953 36.6141 22.1403V25.6555ZM42.5011 15.5087C41.5442 15.5087 40.7332 15.185 40.068 14.5378C39.4028 13.8904 39.0701 13.1024 39.0701 12.1737C39.0701 11.2475 39.4028 10.4666 40.068 9.83079C40.7332 9.195 41.5442 8.87711 42.5011 8.87711C43.4529 8.87711 44.2651 9.195 44.938 9.83079C45.6109 10.4666 45.9474 11.2475 45.9474 12.1737C45.9474 13.1024 45.6109 13.8904 44.938 14.5378C44.2651 15.185 43.4529 15.5087 42.5011 15.5087ZM42.5088 10.5963C42.0968 10.5963 41.7483 10.7499 41.463 11.0568C41.1778 11.3639 41.0351 11.7387 41.0351 12.1813C41.0351 12.6239 41.1778 13.0026 41.463 13.3174C41.7483 13.632 42.0968 13.7893 42.5088 13.7893C42.913 13.7893 43.2597 13.632 43.5488 13.3174C43.8379 13.0026 43.9825 12.6239 43.9825 12.1813C43.9825 11.7387 43.8399 11.3639 43.5546 11.0568C43.2692 10.7499 42.9207 10.5963 42.5088 10.5963Z" fill="#CC6999"/>
</svg>
