<svg width="120" height="120" viewBox="0 0 120 120" fill="none" xmlns="http://www.w3.org/2000/svg">
<path d="M57.6797 52.9219C57.6797 54.9148 58.0722 56.8882 58.8349 58.7294C59.5975 60.5706 60.7154 62.2436 62.1246 63.6528C63.5338 65.062 65.2067 66.1798 67.0479 66.9425C68.8892 67.7051 70.8626 68.0977 72.8555 68.0977C74.8484 68.0977 76.8218 67.7051 78.663 66.9425C80.5042 66.1798 82.1772 65.062 83.5864 63.6528C84.9956 62.2436 86.1134 60.5706 86.8761 58.7294C87.6387 56.8882 88.0312 54.9148 88.0312 52.9219C88.0312 50.929 87.6387 48.9556 86.8761 47.1144C86.1134 45.2731 84.9956 43.6002 83.5864 42.191C82.1772 40.7818 80.5042 39.6639 78.663 38.9013C76.8218 38.1386 74.8484 37.7461 72.8555 37.7461C70.8626 37.7461 68.8892 38.1386 67.0479 38.9013C65.2067 39.6639 63.5338 40.7818 62.1246 42.191C60.7154 43.6002 59.5975 45.2731 58.8349 47.1144C58.0722 48.9556 57.6797 50.929 57.6797 52.9219Z" fill="#F4CE26"/>
<path d="M72.8555 71.1797C62.7891 71.1797 54.5977 62.9883 54.5977 52.9219C54.5977 42.8555 62.7891 34.6641 72.8555 34.6641C82.9219 34.6641 91.1133 42.8555 91.1133 52.9219C91.1133 62.9883 82.9219 71.1797 72.8555 71.1797ZM72.8555 40.8398C66.1992 40.8398 60.7734 46.2539 60.7734 52.9219C60.7734 59.5898 66.1992 65.0039 72.8555 65.0039C79.5117 65.0039 84.9258 59.5781 84.9258 52.9102C84.9258 46.2422 79.5117 40.8398 72.8555 40.8398Z" fill="#333333"/>
<path d="M58.8398 23.2031C60.2226 22.4062 61.9922 22.875 62.789 24.2578L65.6836 29.2617C66.4805 30.6445 66.0117 32.4141 64.6289 33.2109C63.2461 34.0078 61.4765 33.5391 60.6797 32.1562L57.7851 27.1523C56.9766 25.7578 57.457 24 58.8398 23.2031ZM94.664 47.625C95.0742 49.1719 96.6562 50.0859 98.2031 49.6641L103.781 48.1641C105.328 47.7539 106.242 46.1719 105.82 44.625C105.41 43.0781 103.828 42.1641 102.281 42.5859L96.7031 44.0859C95.168 44.4961 94.2539 46.0781 94.664 47.625ZM93.1172 60.6211C92.707 62.168 93.6211 63.75 95.1562 64.1602L100.734 65.6602C102.281 66.0703 103.863 65.1563 104.273 63.6211C104.684 62.0742 103.77 60.4922 102.234 60.082L96.6562 58.582C95.1211 58.1719 93.539 59.0859 93.1172 60.6211ZM78.0117 18.9609C79.6055 18.9609 80.9062 20.25 80.9062 21.8555V27.6328C80.9062 29.2266 79.6172 30.5273 78.0117 30.5273C76.418 30.5273 75.1172 29.2383 75.1172 27.6328V21.8555C75.1172 20.2617 76.4062 18.9609 78.0117 18.9609ZM97.5937 27.1055C96.4687 25.9805 94.6406 25.9805 93.5039 27.1055L89.414 31.1953C88.289 32.3203 88.289 34.1484 89.414 35.2852C90.539 36.4102 92.3672 36.4102 93.5039 35.2852L97.5937 31.1953C98.7305 30.0586 98.7305 28.2305 97.5937 27.1055Z" fill="#333333"/>
<path d="M30.9961 86.8125C30.7383 86.8359 30.4922 86.8594 30.2344 86.8711C23.1445 87.2695 17.2266 81.0469 17.2266 73.8633C17.2266 66.6797 23.0508 60.8555 30.2344 60.8555C30.7266 60.8555 31.2187 60.8789 31.6992 60.9375C31.6875 60.668 31.6875 60.3984 31.6875 60.1289C31.6875 50.1562 39.7734 42.0703 49.7461 42.0703C58.5586 42.0703 65.8945 48.375 67.4883 56.7187C68.2969 56.5898 69.1289 56.5195 69.9726 56.5195C78.3516 56.5195 85.1484 63.3164 85.1484 71.6953C85.125 77.0508 82.3594 81.7617 78.1641 84.457C75.7969 85.9805 72.9844 86.9531 69.9609 86.8594C69.5508 86.8477 69.1523 86.8242 68.7539 86.7773C68.625 86.7891 68.4844 86.7891 68.3555 86.7891H30.9961V86.8125Z" fill="white"/>
<path d="M29.5781 89.9766C25.7812 89.9766 22.1602 88.5117 19.2773 85.7812C16.0078 82.6875 14.1328 78.3398 14.1328 73.8633C14.1328 65.5078 20.543 58.6055 28.6992 57.8438C29.8477 47.2617 38.8359 38.9883 49.7227 38.9883C58.9102 38.9883 66.9492 44.918 69.7852 53.4375H69.9492C80.0273 53.4375 88.2188 61.6289 88.2188 71.6953C88.2188 77.9414 85.0898 83.6836 79.8398 87.0586C76.7344 89.0625 73.2656 90.0586 69.8672 89.9531C69.4688 89.9414 69.082 89.918 68.6953 89.8828C68.5781 89.8828 68.4609 89.8945 68.3438 89.8945H31.1484C30.9023 89.918 30.6562 89.9414 30.4102 89.9531C30.1289 89.9648 29.8594 89.9766 29.5781 89.9766ZM30.2227 63.9492C24.7617 63.9492 20.3086 68.4023 20.3086 73.8633C20.3086 76.6523 21.4805 79.3594 23.5195 81.293C25.3594 83.0391 27.7031 83.9297 30.0469 83.7773C30.2461 83.7656 30.457 83.7539 30.6562 83.7305L30.9844 83.707H69.0586C69.3867 83.7422 69.7148 83.7656 70.043 83.7773C72.7617 83.8711 75.0586 82.7812 76.4766 81.8555C79.9688 79.6289 82.043 75.832 82.043 71.6953C82.043 65.0391 76.6172 59.6133 69.9609 59.6133C69.293 59.6133 68.625 59.6719 67.9805 59.7773L65.0039 60.2695L64.4414 57.3047C63.0938 50.2734 56.918 45.1641 49.7344 45.1641C41.4727 45.1641 34.7578 51.8789 34.7578 60.1406C34.7578 60.3633 34.7578 60.5859 34.7695 60.8086L34.9336 64.4297L31.3359 64.0195C30.9727 63.9727 30.6094 63.9492 30.2227 63.9492Z" fill="#333333"/>
</svg>
