<svg width="34" height="34" viewBox="0 0 34 34" fill="none" xmlns="http://www.w3.org/2000/svg">
<g clip-path="url(#clip0_23_71)">
<path d="M1.41666 12.1125C1.40254 12.2822 1.40254 12.4528 1.41666 12.6225C1.53097 14.2181 2.20298 15.7226 3.315 16.8725C4.55712 18.1302 6.22463 18.8781 7.99 18.9692L30.1183 18.9692C30.4001 18.9692 30.6704 18.8572 30.8696 18.658C31.0689 18.4587 31.1808 18.1885 31.1808 17.9067C31.1808 17.6249 31.0689 17.3546 30.8696 17.1554C30.6704 16.9561 30.4001 16.8442 30.1183 16.8442L8.34416 16.8442H7.74916C6.57959 16.6995 5.50286 16.1334 4.72056 15.252C3.93826 14.3706 3.50403 13.2343 3.49916 12.0558C3.49866 11.7469 3.52712 11.4386 3.58416 11.135C3.79421 10.0301 4.38319 9.03314 5.24954 8.31598C6.11589 7.59881 7.20532 7.2064 8.33 7.2064C9.45467 7.2064 10.5441 7.59881 11.4105 8.31598C12.2768 9.03314 12.8658 10.0301 13.0758 11.135C13.1329 11.4386 13.1613 11.7469 13.1608 12.0558C13.1597 12.4622 13.1074 12.8668 13.005 13.26V13.4867C12.9683 13.5735 12.9398 13.6636 12.92 13.7558C12.92 13.8267 12.92 13.8975 12.92 13.9683C12.9213 14.2128 13.0068 14.4493 13.1621 14.638C13.3174 14.8267 13.5331 14.9561 13.7727 15.0044C14.0123 15.0526 14.2613 15.0168 14.4775 14.9029C14.6938 14.789 14.8642 14.604 14.96 14.3792C14.9901 14.3009 15.0138 14.2204 15.0308 14.1383C15.1279 13.8515 15.2037 13.558 15.2575 13.26C15.331 12.8628 15.3689 12.4598 15.3708 12.0558C15.3995 11.7496 15.3995 11.4413 15.3708 11.135C15.2619 9.28456 14.4223 7.5532 13.0368 6.32179C11.6513 5.09038 9.83335 4.45979 7.98291 4.56875C6.13248 4.67771 4.40111 5.51729 3.1697 6.9028C1.93829 8.2883 1.3077 10.1062 1.41666 11.9567C1.40966 12.0084 1.40966 12.0608 1.41666 12.1125Z" fill="black"/>
<path d="M17 8.5C16.9916 9.74121 17.4655 10.9372 18.3218 11.8358C19.1781 12.7343 20.3498 13.2653 21.59 13.3167L30.1892 13.3167C30.471 13.3167 30.7412 13.2047 30.9405 13.0055C31.1397 12.8062 31.2517 12.536 31.2517 12.2542C31.2517 11.9724 31.1397 11.7021 30.9405 11.5029C30.7412 11.3036 30.471 11.1917 30.1892 11.1917H21.6892C21.1671 11.164 20.6646 10.9841 20.2436 10.6742C19.8226 10.3643 19.5016 9.93795 19.32 9.44773C19.1385 8.9575 19.1044 8.42485 19.222 7.9155C19.3397 7.40614 19.6038 6.94236 19.9819 6.58136C20.36 6.22036 20.8355 5.97794 21.3498 5.884C21.864 5.79007 22.3945 5.84872 22.8758 6.05274C23.3571 6.25675 23.7682 6.5972 24.0583 7.03208C24.3484 7.46696 24.5048 7.97725 24.5083 8.5C24.5083 8.78179 24.6203 9.05204 24.8195 9.2513C25.0188 9.45056 25.289 9.5625 25.5708 9.5625C25.8526 9.5625 26.1229 9.45056 26.3221 9.2513C26.5214 9.05204 26.6333 8.78179 26.6333 8.5C26.6333 7.22254 26.1259 5.9974 25.2226 5.0941C24.3193 4.1908 23.0941 3.68333 21.8167 3.68333C20.5392 3.68333 19.3141 4.1908 18.4108 5.0941C17.5075 5.9974 17 7.22254 17 8.5Z" fill="black"/>
<path d="M11.3333 27.37C11.3033 28.6437 11.7804 29.8772 12.6598 30.7991C13.5392 31.721 14.7488 32.2558 16.0225 32.2858C17.2962 32.3159 18.5297 31.8387 19.4516 30.9594C20.3735 30.08 20.9083 28.8704 20.9383 27.5967C20.9383 27.4578 20.9108 27.3203 20.8572 27.1922C20.8036 27.0641 20.7251 26.9479 20.6263 26.8503C20.5274 26.7528 20.4102 26.6759 20.2814 26.624C20.1525 26.5722 20.0147 26.5465 19.8758 26.5483C19.604 26.5445 19.3415 26.6479 19.1453 26.8362C18.9491 27.0244 18.8349 27.2824 18.8275 27.5542C18.792 28.0566 18.6155 28.5389 18.3183 28.9455C18.0211 29.3522 17.6152 29.6668 17.1472 29.8531C16.6793 30.0395 16.1682 30.09 15.6728 29.999C15.1774 29.908 14.7177 29.6791 14.3466 29.3386C13.9754 28.998 13.7078 28.5597 13.5746 28.074C13.4413 27.5882 13.4478 27.0748 13.5932 26.5925C13.7386 26.1103 14.0171 25.6788 14.3967 25.3477C14.7763 25.0167 15.2416 24.7994 15.7392 24.7208C15.8757 24.7062 16.0134 24.7062 16.15 24.7208H30.3167C30.5985 24.7208 30.8687 24.6089 31.068 24.4096C31.2672 24.2104 31.3792 23.9401 31.3792 23.6583C31.3792 23.3765 31.2672 23.1063 31.068 22.907C30.8687 22.7078 30.5985 22.5958 30.3167 22.5958L15.5125 22.5958C14.3417 22.7314 13.2616 23.2928 12.4779 24.1732C11.6942 25.0535 11.2616 26.1914 11.2625 27.37H11.3333Z" fill="black"/>
</g>
<defs>
<clipPath id="clip0_23_71">
<rect width="34" height="34" fill="white" transform="matrix(-1 0 0 1 34 0)"/>
</clipPath>
</defs>
</svg>
